{"asset":{"version":"2.0","generator":"Blockbench 4.6.4 glTF exporter"},"scenes":[{"nodes":[5],"name":"blockbench_export"}],"scene":0,"nodes":[{"rotation":[0.5123620647053811,0.4649649425407713,0.5300574175862199,0.4902365254861409],"translation":[0,0,4.0625],"name":"cylinder","mesh":0},{"rotation":[-0.7371018847693692,-0.6754294354411662,0.016083620341099544,0.014737922709611726],"translation":[3.625,0,0],"name":"cylinder","mesh":1},{"rotation":[0,0,0.7372773368101241,0.6755902076156602],"translation":[-3.875,0,0],"name":"cylinder","mesh":2},{"rotation":[-0.5213338044735966,-0.4777144171082613,0.5213338044735965,0.4777144171082614],"translation":[0,0,-3.6875],"name":"cylinder","mesh":3},{"rotation":[0,-0.3826834323650898,0,0.9238795325112867],"translation":[0,0.125,0],"name":"bone","children":[0,1,2,3]},{"children":[4]}],"bufferViews":[{"buffer":0,"byteOffset":0,"byteLength":1440,"target":34962,"byteStride":12},{"buffer":0,"byteOffset":1440,"byteLength":1440,"target":34962,"byteStride":12},{"buffer":0,"byteOffset":2880,"byteLength":960,"target":34962,"byteStride":8},{"buffer":0,"byteOffset":3840,"byteLength":288,"target":34963},{"buffer":0,"byteOffset":4128,"byteLength":1440,"target":34962,"byteStride":12},{"buffer":0,"byteOffset":5568,"byteLength":1440,"target":34962,"byteStride":12},{"buffer":0,"byteOffset":7008,"byteLength":960,"target":34962,"byteStride":8},{"buffer":0,"byteOffset":7968,"byteLength":288,"target":34963},{"buffer":0,"byteOffset":8256,"byteLength":1440,"target":34962,"byteStride":12},{"buffer":0,"byteOffset":9696,"byteLength":1440,"target":34962,"byteStride":12},{"buffer":0,"byteOffset":11136,"byteLength":960,"target":34962,"byteStride":8},{"buffer":0,"byteOffset":12096,"byteLength":288,"target":34963},{"buffer":0,"byteOffset":12384,"byteLength":1440,"target":34962,"byteStride":12},{"buffer":0,"byteOffset":13824,"byteLength":1440,"target":34962,"byteStride":12},{"buffer":0,"byteOffset":15264,"byteLength":960,"target":34962,"byteStride":8},{"buffer":0,"byteOffset":16224,"byteLength":288,"target":34963}],"buffers":[{"byteLength":16512,"uri":"data:application/octet-stream;base64,"}],"accessors":[{"bufferView":0,"componentType":5126,"count":120,"max":[0.43668293952941895,-0.746314525604248,0.13949666917324066],"min":[-0.18831704556941986,-3.621314525604248,-0.48550331592559814],"type":"VEC3"},{"bufferView":1,"componentType":5126,"count":120,"max":[1,1,1],"min":[-1,-1,-1],"type":"VEC3"},{"bufferView":2,"componentType":5126,"count":120,"max":[0.5176382064819336,1],"min":[0,0.4823617935180664],"type":"VEC2"},{"bufferView":3,"componentType":5123,"count":144,"max":[119],"min":[0],"type":"SCALAR"},{"bufferView":4,"componentType":5126,"count":120,"max":[0.4375,-0.3090498149394989,0.4706202745437622],"min":[-0.1875,-3.1840498447418213,-0.1543797254562378],"type":"VEC3"},{"bufferView":5,"componentType":5126,"count":120,"max":[1,1,1],"min":[-1,-1,-1],"type":"VEC3"},{"bufferView":6,"componentType":5126,"count":120,"max":[0.5176382064819336,1],"min":[0,0.4823617935180664],"type":"VEC2"},{"bufferView":7,"componentType":5123,"count":144,"max":[119],"min":[0],"type":"SCALAR"},{"bufferView":8,"componentType":5126,"count":120,"max":[0.4375,-0.5625,0.3125],"min":[-0.1875,-3.4375,-0.3125],"type":"VEC3"},{"bufferView":9,"componentType":5126,"count":120,"max":[1,1,1],"min":[-1,-1,-1],"type":"VEC3"},{"bufferView":10,"componentType":5126,"count":120,"max":[0.5176382064819336,1],"min":[0,0.4823617935180664],"type":"VEC2"},{"bufferView":11,"componentType":5123,"count":144,"max":[119],"min":[0],"type":"SCALAR"},{"bufferView":12,"componentType":5126,"count":120,"max":[0.4375,-0.375,0.3125],"min":[-0.1875,-3.25,-0.3125],"type":"VEC3"},{"bufferView":13,"componentType":5126,"count":120,"max":[1,1,1],"min":[-1,-1,-1],"type":"VEC3"},{"bufferView":14,"componentType":5126,"count":120,"max":[0.5176382064819336,1],"min":[0,0.4823617935180664],"type":"VEC2"},{"bufferView":15,"componentType":5123,"count":144,"max":[119],"min":[0],"type":"SCALAR"}],"materials":[{"pbrMetallicRoughness":{"metallicFactor":0,"roughnessFactor":1,"baseColorTexture":{"index":0}},"alphaMode":"MASK","alphaCutoff":0.05,"doubleSided":true}],"textures":[{"sampler":0,"source":0,"name":"rough_wood_32x32.png"}],"samplers":[{"magFilter":9728,"minFilter":9728,"wrapS":33071,"wrapT":33071}],"images":[{"mimeType":"image/png","uri":"data:image/png;base64,"}],"meshes":[{"primitives":[{"mode":4,"attributes":{"POSITION":0,"NORMAL":1,"TEXCOORD_0":2},"indices":3,"material":0}]},{"primitives":[{"mode":4,"attributes":{"POSITION":4,"NORMAL":5,"TEXCOORD_0":6},"indices":7,"material":0}]},{"primitives":[{"mode":4,"attributes":{"POSITION":8,"NORMAL":9,"TEXCOORD_0":10},"indices":11,"material":0}]},{"primitives":[{"mode":4,"attributes":{"POSITION":12,"NORMAL":13,"TEXCOORD_0":14},"indices":15,"material":0}]}]}